<mxfile host="app.diagrams.net" agent="Mozilla/5.0 (Windows NT 10.0; Win64; x64) AppleWebKit/537.36 (KHTML, like Gecko) Chrome/127.0.0.0 Safari/537.36" version="24.7.6">
  <diagram id="C5RBs43oDa-KdzZeNtuy" name="Page-1">
    <mxGraphModel dx="2140" dy="653" grid="1" gridSize="10" guides="1" tooltips="1" connect="1" arrows="1" fold="1" page="1" pageScale="1" pageWidth="827" pageHeight="1169" math="0" shadow="0">
      <root>
        <mxCell id="WIyWlLk6GJQsqaUBKTNV-0" />
        <mxCell id="WIyWlLk6GJQsqaUBKTNV-1" parent="WIyWlLk6GJQsqaUBKTNV-0" />
        <mxCell id="SJsT9WyOkdK9f4sZUPTT-2" value="" style="edgeStyle=orthogonalEdgeStyle;rounded=0;orthogonalLoop=1;jettySize=auto;html=1;" edge="1" parent="WIyWlLk6GJQsqaUBKTNV-1" source="SJsT9WyOkdK9f4sZUPTT-0" target="SJsT9WyOkdK9f4sZUPTT-1">
          <mxGeometry relative="1" as="geometry" />
        </mxCell>
        <mxCell id="SJsT9WyOkdK9f4sZUPTT-0" value="Inicio" style="ellipse;whiteSpace=wrap;html=1;aspect=fixed;" vertex="1" parent="WIyWlLk6GJQsqaUBKTNV-1">
          <mxGeometry x="50" y="30" width="80" height="80" as="geometry" />
        </mxCell>
        <mxCell id="SJsT9WyOkdK9f4sZUPTT-4" value="" style="edgeStyle=orthogonalEdgeStyle;rounded=0;orthogonalLoop=1;jettySize=auto;html=1;" edge="1" parent="WIyWlLk6GJQsqaUBKTNV-1" source="SJsT9WyOkdK9f4sZUPTT-1" target="SJsT9WyOkdK9f4sZUPTT-3">
          <mxGeometry relative="1" as="geometry" />
        </mxCell>
        <mxCell id="SJsT9WyOkdK9f4sZUPTT-1" value="&lt;br&gt;&lt;span style=&quot;color: rgb(26, 26, 26);&quot;&gt;Mostrar mensaje: &quot;Por favor, ingrese una palabra&quot;&lt;/span&gt;&lt;div&gt;&lt;br/&gt;&lt;/div&gt;" style="shape=parallelogram;perimeter=parallelogramPerimeter;whiteSpace=wrap;html=1;fixedSize=1;fillColor=#ffe6cc;strokeColor=#d79b00;align=center;" vertex="1" parent="WIyWlLk6GJQsqaUBKTNV-1">
          <mxGeometry y="170" width="180" height="60" as="geometry" />
        </mxCell>
        <mxCell id="SJsT9WyOkdK9f4sZUPTT-8" value="" style="edgeStyle=orthogonalEdgeStyle;rounded=0;orthogonalLoop=1;jettySize=auto;html=1;" edge="1" parent="WIyWlLk6GJQsqaUBKTNV-1" source="SJsT9WyOkdK9f4sZUPTT-3" target="SJsT9WyOkdK9f4sZUPTT-7">
          <mxGeometry relative="1" as="geometry" />
        </mxCell>
        <mxCell id="SJsT9WyOkdK9f4sZUPTT-3" value="&lt;br&gt;&lt;span style=&quot;color: rgb(26, 26, 26);&quot;&gt;Definir la varialbe cantidad_letras y asignarle la Longitud de palabra_ingresada&lt;/span&gt;&lt;div&gt;&lt;br/&gt;&lt;/div&gt;" style="rounded=1;whiteSpace=wrap;html=1;fillColor=#dae8fc;strokeColor=#6c8ebf;align=center;" vertex="1" parent="WIyWlLk6GJQsqaUBKTNV-1">
          <mxGeometry y="290" width="180" height="70" as="geometry" />
        </mxCell>
        <mxCell id="SJsT9WyOkdK9f4sZUPTT-10" value="" style="edgeStyle=orthogonalEdgeStyle;rounded=0;orthogonalLoop=1;jettySize=auto;html=1;" edge="1" parent="WIyWlLk6GJQsqaUBKTNV-1" source="SJsT9WyOkdK9f4sZUPTT-7" target="SJsT9WyOkdK9f4sZUPTT-9">
          <mxGeometry relative="1" as="geometry" />
        </mxCell>
        <mxCell id="SJsT9WyOkdK9f4sZUPTT-7" value="&lt;br&gt;&lt;div style=&quot;&quot;&gt;&lt;span style=&quot;background-color: transparent; color: rgb(26, 26, 26);&quot;&gt;Mostrar mensaje: &quot;La palabra ingresada tiene&quot;, cantidad_letras, &quot;letras.&quot;&lt;/span&gt;&lt;/div&gt;&lt;div style=&quot;&quot;&gt;&lt;br&gt;&lt;/div&gt;" style="shape=parallelogram;perimeter=parallelogramPerimeter;whiteSpace=wrap;html=1;fixedSize=1;rounded=1;fillColor=#ffe6cc;strokeColor=#d79b00;" vertex="1" parent="WIyWlLk6GJQsqaUBKTNV-1">
          <mxGeometry x="-17.5" y="450" width="215" height="55" as="geometry" />
        </mxCell>
        <mxCell id="SJsT9WyOkdK9f4sZUPTT-9" value="Fin" style="ellipse;whiteSpace=wrap;html=1;rounded=1;" vertex="1" parent="WIyWlLk6GJQsqaUBKTNV-1">
          <mxGeometry x="50" y="572.5" width="80" height="80" as="geometry" />
        </mxCell>
      </root>
    </mxGraphModel>
  </diagram>
</mxfile>
